<?xml version="1.0" encoding="UTF-8"?>
<!DOCTYPE svg PUBLIC "-//W3C//DTD SVG 1.1//EN" "http://www.w3.org/Graphics/SVG/1.1/DTD/svg11.dtd">
<svg xmlns="http://www.w3.org/2000/svg" version="1.1" width="720px" height="202px" style="shape-rendering:geometricPrecision; text-rendering:geometricPrecision; image-rendering:optimizeQuality; fill-rule:evenodd; clip-rule:evenodd" xmlns:xlink="http://www.w3.org/1999/xlink">
<g><path style="opacity:0.966" fill="#0166cc" d="M 601.5,-0.5 C 612.167,-0.5 622.833,-0.5 633.5,-0.5C 633.667,51.1677 633.5,102.834 633,154.5C 622.916,155.486 612.749,155.819 602.5,155.5C 602.762,154.022 602.429,152.689 601.5,151.5C 586.172,158.463 570.505,159.296 554.5,154C 544.595,148.749 538.429,140.582 536,129.5C 530.844,107.636 531.51,85.9689 538,64.5C 544.869,49.9776 556.369,42.1443 572.5,41C 581.969,40.3504 591.302,41.1837 600.5,43.5C 601.499,28.8485 601.833,14.1818 601.5,-0.5 Z M 576.5,68.5 C 584.612,68.1138 592.612,68.7805 600.5,70.5C 601.5,89.1548 601.833,107.821 601.5,126.5C 593.602,128.414 585.602,129.248 577.5,129C 573.157,127.99 569.99,125.49 568,121.5C 562.796,105.526 563.462,89.8597 570,74.5C 572.063,72.2659 574.229,70.2659 576.5,68.5 Z"/></g>
<g><path style="opacity:0.992" fill="#fe6a00" d="M 94.5,193.5 C 94.5,186.833 94.5,180.167 94.5,173.5C 94.3333,123.499 94.5,73.4989 95,23.5C 105.214,17.8089 115.714,12.8089 126.5,8.5C 126.833,65.8372 126.5,123.171 125.5,180.5C 116.21,185.096 106.876,189.596 97.5,194C 96.2506,194.74 95.2506,194.573 94.5,193.5 Z"/></g>
<g><path style="opacity:0.971" fill="#0266cc" d="M 263.5,40.5 C 279.331,41.2706 294.998,43.2706 310.5,46.5C 310.745,55.2075 310.411,63.8742 309.5,72.5C 293.569,70.2734 277.569,69.44 261.5,70C 252.698,73.386 252.364,77.386 260.5,82C 273.021,84.2531 285.355,87.2531 297.5,91C 305.164,93.998 309.997,99.498 312,107.5C 314.666,119.183 313.666,130.516 309,141.5C 301.936,150.952 292.436,156.119 280.5,157C 261.938,158.221 243.605,156.721 225.5,152.5C 225.284,143.467 225.617,134.467 226.5,125.5C 243.09,128.601 259.757,129.434 276.5,128C 284.476,124.054 284.476,120.054 276.5,116C 266.863,113.873 257.197,111.873 247.5,110C 239.829,108.084 233.329,104.25 228,98.5C 215.738,63.983 227.571,44.6497 263.5,40.5 Z"/></g>
<g><path style="opacity:0.969" fill="#0166cc" d="M 363.5,201.5 C 353.5,201.5 343.5,201.5 333.5,201.5C 332.17,148.736 332.17,96.069 333.5,43.5C 342.986,44.4938 352.652,44.8271 362.5,44.5C 362.232,46.099 362.566,47.4324 363.5,48.5C 380.714,38.0481 398.048,37.8814 415.5,48C 425.078,56.6585 430.245,67.4918 431,80.5C 433.196,96.6203 432.529,112.62 429,128.5C 424.012,146.423 412.179,155.923 393.5,157C 383.811,157.693 374.144,157.527 364.5,156.5C 364.816,171.578 364.483,186.578 363.5,201.5 Z M 374.5,69.5 C 391.268,67.7607 399.768,75.4273 400,92.5C 400.96,102.823 399.626,112.823 396,122.5C 391.494,128.002 385.661,130.669 378.5,130.5C 373.859,129.769 369.193,129.436 364.5,129.5C 364.333,110.83 364.5,92.1637 365,73.5C 368.139,71.8502 371.306,70.5169 374.5,69.5 Z"/></g>
<g><path style="opacity:0.63" fill="#3383d5" d="M 333.5,43.5 C 343.5,43.5 353.5,43.5 363.5,43.5C 363.5,45.1667 363.5,46.8333 363.5,48.5C 362.566,47.4324 362.232,46.099 362.5,44.5C 352.652,44.8271 342.986,44.4938 333.5,43.5 Z"/></g>
<g><path style="opacity:0.984" fill="#0166cc" d="M 476.5,43.5 C 504.43,43.6058 516.597,57.6058 513,85.5C 506.391,105.061 492.891,112.561 472.5,108C 454.422,100.508 447.255,87.0079 451,67.5C 454.574,54.0879 463.074,46.0879 476.5,43.5 Z"/></g>
<g><path style="opacity:0.964" fill="#b1b1b1" d="M 94.5,173.5 C 94.5,180.167 94.5,186.833 94.5,193.5C 63.9983,191.825 37.8317,180.491 16,159.5C -2.28855,131.596 1.87812,107.43 28.5,87C 47.1988,74.2653 67.8655,66.7653 90.5,64.5C 90.6663,71.175 90.4996,77.8417 90,84.5C 69.4933,87.7468 52.8266,97.4135 40,113.5C 32.8435,127.882 34.8435,140.882 46,152.5C 59.7953,164.81 75.962,171.81 94.5,173.5 Z"/></g>
<g><path style="opacity:0.953" fill="#b1b1b1" d="M 130.5,64.5 C 149.475,66.6997 167.308,72.3663 184,81.5C 189.281,79.0521 194.447,76.3855 199.5,73.5C 201.825,88.0832 203.492,102.75 204.5,117.5C 184.751,113.55 165.085,109.217 145.5,104.5C 150.344,101.17 155.344,98.0033 160.5,95C 151.067,90.3007 141.234,86.8007 131,84.5C 130.5,77.8417 130.334,71.175 130.5,64.5 Z"/></g>
<g><path style="opacity:0.98" fill="#0166cc" d="M 513.5,147.5 C 512.549,148.919 512.216,150.585 512.5,152.5C 492.167,152.5 471.833,152.5 451.5,152.5C 451.784,150.585 451.451,148.919 450.5,147.5C 453.72,129.861 464.387,120.527 482.5,119.5C 500.46,120.463 510.794,129.796 513.5,147.5 Z"/></g>
<g><path style="opacity:0.774" fill="#3384d5" d="M 450.5,147.5 C 451.451,148.919 451.784,150.585 451.5,152.5C 471.833,152.5 492.167,152.5 512.5,152.5C 512.216,150.585 512.549,148.919 513.5,147.5C 513.5,149.5 513.5,151.5 513.5,153.5C 492.5,153.5 471.5,153.5 450.5,153.5C 450.5,151.5 450.5,149.5 450.5,147.5 Z"/></g>
<g><path style="opacity:0.878" fill="#ff6900" d="M 231.5,171.5 C 244.988,171.148 250.155,177.482 247,190.5C 242.675,196.941 236.842,198.774 229.5,196C 226.619,194.749 224.786,192.583 224,189.5C 221.899,181.389 224.399,175.389 231.5,171.5 Z M 232.5,177.5 C 239.276,176.776 242.11,179.776 241,186.5C 240.252,190.914 237.752,192.414 233.5,191C 229.843,186.872 229.509,182.372 232.5,177.5 Z"/></g>
<g><path style="opacity:0.91" fill="#ff6900" d="M 251.5,171.5 C 253.5,171.5 255.5,171.5 257.5,171.5C 257.5,179.833 257.5,188.167 257.5,196.5C 255.5,196.5 253.5,196.5 251.5,196.5C 251.5,188.167 251.5,179.833 251.5,171.5 Z"/></g>
<g><path style="opacity:0.885" fill="#ff6900" d="M 262.5,171.5 C 268.711,171.016 274.711,171.849 280.5,174C 285.833,180.667 285.833,187.333 280.5,194C 274.762,196.295 268.762,197.128 262.5,196.5C 262.5,188.167 262.5,179.833 262.5,171.5 Z M 268.5,177.5 C 277.578,177.687 279.912,181.854 275.5,190C 273.323,191.202 270.989,191.702 268.5,191.5C 268.5,186.833 268.5,182.167 268.5,177.5 Z"/></g>
<g><path style="opacity:0.846" fill="#ff6900" d="M 295.5,171.5 C 298.518,171.335 301.518,171.502 304.5,172C 306.982,173.955 307.148,176.121 305,178.5C 295.488,175.683 291.821,179.017 294,188.5C 297.628,191.806 301.794,192.473 306.5,190.5C 306.995,195.771 304.495,198.104 299,197.5C 288.049,196.287 284.049,190.287 287,179.5C 288.773,175.56 291.606,172.893 295.5,171.5 Z"/></g>
<g><path style="opacity:0.862" fill="#b1b1b1" d="M 395.5,171.5 C 408.988,171.148 414.155,177.482 411,190.5C 406.675,196.941 400.842,198.774 393.5,196C 390.619,194.749 388.786,192.583 388,189.5C 385.899,181.389 388.399,175.389 395.5,171.5 Z M 396.5,177.5 C 403.276,176.776 406.11,179.776 405,186.5C 404.252,190.914 401.752,192.414 397.5,191C 393.843,186.872 393.509,182.372 396.5,177.5 Z"/></g>
<g><path style="opacity:0.89" fill="#b1b1b1" d="M 415.5,171.5 C 421.072,170.99 426.405,171.823 431.5,174C 435.302,183.536 431.969,188.37 421.5,188.5C 421.5,191.167 421.5,193.833 421.5,196.5C 419.5,196.5 417.5,196.5 415.5,196.5C 415.5,188.167 415.5,179.833 415.5,171.5 Z M 421.5,176.5 C 426.682,176.786 428.016,178.953 425.5,183C 424.207,183.49 422.873,183.657 421.5,183.5C 421.5,181.167 421.5,178.833 421.5,176.5 Z"/></g>
<g><path style="opacity:0.86" fill="#b1b1b1" d="M 443.5,171.5 C 445.833,171.5 448.167,171.5 450.5,171.5C 451.688,177.233 453.188,182.9 455,188.5C 457.133,183.268 458.966,177.934 460.5,172.5C 462.396,171.534 464.396,171.201 466.5,171.5C 464.712,179.7 462.212,187.7 459,195.5C 456.333,196.833 453.667,196.833 451,195.5C 448.191,187.573 445.691,179.573 443.5,171.5 Z"/></g>
<g><path style="opacity:0.885" fill="#b1b1b1" d="M 473.5,171.5 C 475.857,171.337 478.19,171.503 480.5,172C 483.593,179.777 486.593,187.611 489.5,195.5C 487.167,196.833 484.833,196.833 482.5,195.5C 481.754,194.264 481.421,192.93 481.5,191.5C 478.5,191.5 475.5,191.5 472.5,191.5C 472.714,193.144 472.38,194.644 471.5,196C 469.167,196.667 466.833,196.667 464.5,196C 467.797,187.942 470.797,179.775 473.5,171.5 Z M 476.5,179.5 C 477.864,181.22 478.864,183.22 479.5,185.5C 477.926,186.631 476.259,186.798 474.5,186C 475.669,183.993 476.335,181.827 476.5,179.5 Z"/></g>
<g><path style="opacity:0.812" fill="#b1b1b1" d="M 491.5,171.5 C 493.792,171.244 495.959,171.577 498,172.5C 498.5,178.825 498.666,185.158 498.5,191.5C 501.187,191.336 503.854,191.503 506.5,192C 507.38,193.356 507.714,194.856 507.5,196.5C 502.167,196.5 496.833,196.5 491.5,196.5C 491.5,188.167 491.5,179.833 491.5,171.5 Z"/></g>
<g><path style="opacity:0.921" fill="#b1b1b1" d="M 509.5,171.5 C 511.5,171.5 513.5,171.5 515.5,171.5C 515.5,179.833 515.5,188.167 515.5,196.5C 513.5,196.5 511.5,196.5 509.5,196.5C 509.5,188.167 509.5,179.833 509.5,171.5 Z"/></g>
<g><path style="opacity:0.89" fill="#b1b1b1" d="M 520.5,171.5 C 526.711,171.016 532.711,171.849 538.5,174C 541.766,176.536 543.1,179.869 542.5,184C 543.005,188.656 541.338,192.323 537.5,195C 531.956,196.404 526.29,196.904 520.5,196.5C 520.5,188.167 520.5,179.833 520.5,171.5 Z M 526.5,177.5 C 532.279,176.387 535.612,178.72 536.5,184.5C 535.349,189.988 532.015,192.322 526.5,191.5C 526.5,186.833 526.5,182.167 526.5,177.5 Z"/></g>
<g><path style="opacity:0.881" fill="#b2b2b2" d="M 551.5,171.5 C 554.167,171.5 556.833,171.5 559.5,171.5C 561.586,179.677 564.253,187.677 567.5,195.5C 565.167,196.833 562.833,196.833 560.5,195.5C 559.754,194.264 559.421,192.93 559.5,191.5C 556.813,191.336 554.146,191.503 551.5,192C 550.833,193.333 550.167,194.667 549.5,196C 547.167,196.667 544.833,196.667 542.5,196C 545.797,187.942 548.797,179.775 551.5,171.5 Z M 554.5,179.5 C 555.864,181.22 556.864,183.22 557.5,185.5C 555.926,186.631 554.259,186.798 552.5,186C 553.669,183.993 554.335,181.827 554.5,179.5 Z"/></g>
<g><path style="opacity:0.849" fill="#b1b1b1" d="M 565.5,171.5 C 572.167,171.5 578.833,171.5 585.5,171.5C 585.5,173.5 585.5,175.5 585.5,177.5C 583.167,177.5 580.833,177.5 578.5,177.5C 578.5,183.833 578.5,190.167 578.5,196.5C 576.5,196.5 574.5,196.5 572.5,196.5C 572.5,190.167 572.5,183.833 572.5,177.5C 570.167,177.5 567.833,177.5 565.5,177.5C 565.5,175.5 565.5,173.5 565.5,171.5 Z"/></g>
<g><path style="opacity:0.853" fill="#b1b1b1" d="M 593.5,171.5 C 605.816,170.649 610.983,176.316 609,188.5C 604.842,197.442 598.342,199.608 589.5,195C 584.932,190.228 583.765,184.728 586,178.5C 587.767,175.228 590.267,172.895 593.5,171.5 Z M 594.5,177.5 C 596.527,177.338 598.527,177.505 600.5,178C 602.429,181.256 602.929,184.756 602,188.5C 598.206,192.741 594.873,192.408 592,187.5C 591.024,183.673 591.857,180.34 594.5,177.5 Z"/></g>
<g><path style="opacity:0.846" fill="#b1b1b1" d="M 612.5,171.5 C 618.68,170.829 624.514,171.829 630,174.5C 631.919,179.089 630.753,182.923 626.5,186C 629.026,189.026 631.36,192.193 633.5,195.5C 631.235,196.647 628.902,196.814 626.5,196C 624.697,192.897 622.53,190.063 620,187.5C 619.502,190.482 619.335,193.482 619.5,196.5C 617.167,196.5 614.833,196.5 612.5,196.5C 612.5,188.167 612.5,179.833 612.5,171.5 Z M 619.5,176.5 C 626.167,178.5 626.167,180.5 619.5,182.5C 619.5,180.5 619.5,178.5 619.5,176.5 Z"/></g>
</svg>
